# xmcd
#
# Track frame offsets:
#	150
#	11626
#	37251
#	67903
#	81223
#	93576
#	99692
#	115942
#	155841
#	162922
#	171854
#	174903
#	186515
#	203497
#
# Disc length: 2728 seconds
#
# Revision: 1
# Processed by: cddbd v1.5.2PL0 Copyright (c) Steve Scherf et al.
# Submitted via: audiograbber 1.83.01
#
DISCID=ba0aa60e
DTITLE=Käpt'n Sharky - ...bei den Wikingern
DYEAR=2014
DGENRE=kids
TTITLE0=Sharkys Piratenlied 8 (Lied)
TTITLE1=Der Schatz von der Schildkröteninsel
TTITLE2=Seeräuber Kollegen
TTITLE3=Wir sind Wi-Wi-Wikinger (Lied)
TTITLE4=Im Wikingerdorf
TTITLE5=Kammlied (Lied)
TTITLE6=Begegnung mit Olof
TTITLE7=Das große Unwetter
TTITLE8=Brüder (Lied)
TTITLE9=Der Angriff der Wölfe
TTITLE10=Kammlied - Reprise (Lied)
TTITLE11=Abschied von den Wikingern
TTITLE12=Sharkys Piratenlied - Reprise (Lied)
TTITLE13=Daten-CD
EXTD=Idee: Jutta Langreuter\nIllustration: Silvio Neuendorf\n\nKäpt'm Sharky: A
EXTD=xel Prahl\nRatte, Coco, Fips, Sigurd: Thomas Nicolai\nMichi: Lara Torp\nLe
EXTD=if: Denis Abrahams\nBjarni: Maximilian Meyer-Bretschneider\nRagnfried: Sop
EXTD=hia Coper\nOlof: Mark Scheibe\nErzähler: Rainer Bielfeldt\nund viele weite
EXTD=re Stimmen....von Olofs Mannschaft
EXTT0=
EXTT1=
EXTT2=
EXTT3=
EXTT4=
EXTT5=
EXTT6=
EXTT7=
EXTT8=
EXTT9=
EXTT10=
EXTT11=
EXTT12=
EXTT13=
PLAYORDER=
